<svg xmlns="http://www.w3.org/2000/svg" viewBox="0 0 200 48" role="img" aria-labelledby="cortex-logo-title">
  <title id="cortex-logo-title">CORTEX</title>

  <!-- Brain/neural icon -->
  <g fill="none" stroke="#00c8ff" stroke-width="2" stroke-linecap="round" stroke-linejoin="round">
    <!-- Left hemisphere -->
    <path d="M20 24 C20 16 26 10 32 12 C30 8 36 6 40 10 C42 6 48 8 48 14 C52 12 54 18 50 22 C54 26 50 34 46 32 C46 38 40 40 36 36 C32 40 24 38 24 32 C18 34 16 28 20 24Z" stroke="#00c8ff" fill="rgba(0,200,255,0.1)"/>
    <!-- Neural connections -->
    <line x1="32" y1="24" x2="40" y2="18"/>
    <line x1="40" y1="18" x2="46" y2="24"/>
    <line x1="40" y1="18" x2="40" y2="28"/>
    <line x1="32" y1="24" x2="36" y2="32"/>
    <circle cx="32" cy="24" r="2" fill="#00c8ff"/>
    <circle cx="40" cy="18" r="2" fill="#00c8ff"/>
    <circle cx="46" cy="24" r="2" fill="#00c8ff"/>
    <circle cx="36" cy="32" r="2" fill="#00c8ff"/>
  </g>

  <!-- Wordmark: CORTEX -->
  <text x="68" y="31" font-family="'Inter', 'Segoe UI', Arial, sans-serif" font-size="22" font-weight="700" letter-spacing="4" fill="#0a0e1a">CORTEX</text>

  <!-- Accent line under text -->
  <line x1="68" y1="35" x2="170" y2="35" stroke="#00c8ff" stroke-width="1.5" stroke-linecap="round" opacity="0.5"/>
</svg>
